<svg id="visual" viewBox="0 0 1440 1024" width="1440" height="1024" xmlns="http://www.w3.org/2000/svg" xmlns:xlink="http://www.w3.org/1999/xlink" version="1.1">
    <rect x="0" y="0" width="1440" height="1024" fill="#ffffff"></rect>
    <defs>
        <linearGradient id="grad1_0" x1="28.9%" y1="0%" x2="100%" y2="100%">
        <stop offset="21.875%" stop-color="#f8b7c7" stop-opacity="1"></stop>
        <stop offset="78.125%" stop-color="#f8b7c7" stop-opacity="1"></stop>
        </linearGradient>
    </defs>
    <defs>
        <linearGradient id="grad1_1" x1="28.9%" y1="0%" x2="100%" y2="100%">
        <stop offset="21.875%" stop-color="#f8b7c7" stop-opacity="1"></stop>
        <stop offset="78.125%" stop-color="#fccfd9" stop-opacity="1"></stop>
        </linearGradient>
    </defs>
    <defs>
        <linearGradient id="grad1_2" x1="28.9%" y1="0%" x2="100%" y2="100%">
        <stop offset="21.875%" stop-color="#fee7ec" stop-opacity="1"></stop>
        <stop offset="78.125%" stop-color="#fccfd9" stop-opacity="1"></stop>
        </linearGradient>
    </defs>
    <defs>
        <linearGradient id="grad1_3" x1="28.9%" y1="0%" x2="100%" y2="100%">
        <stop offset="21.875%" stop-color="#fee7ec" stop-opacity="1"></stop>
        <stop offset="78.125%" stop-color="#ffffff" stop-opacity="1"></stop>
        </linearGradient>
    </defs>
    <defs>
        <linearGradient id="grad2_0" x1="0%" y1="0%" x2="71.1%" y2="100%">
        <stop offset="21.875%" stop-color="#f8b7c7" stop-opacity="1"></stop>
        <stop offset="78.125%" stop-color="#f8b7c7" stop-opacity="1"></stop>
        </linearGradient>
    </defs>
    <defs>
        <linearGradient id="grad2_1" x1="0%" y1="0%" x2="71.1%" y2="100%">
        <stop offset="21.875%" stop-color="#fccfd9" stop-opacity="1"></stop>
        <stop offset="78.125%" stop-color="#f8b7c7" stop-opacity="1"></stop>
        </linearGradient>
    </defs>
    <defs>
        <linearGradient id="grad2_2" x1="0%" y1="0%" x2="71.1%" y2="100%">
        <stop offset="21.875%" stop-color="#fccfd9" stop-opacity="1"></stop>
        <stop offset="78.125%" stop-color="#fee7ec" stop-opacity="1"></stop>
        </linearGradient>
    </defs>
    <defs>
        <linearGradient id="grad2_3" x1="0%" y1="0%" x2="71.1%" y2="100%">
        <stop offset="21.875%" stop-color="#ffffff" stop-opacity="1"></stop>
        <stop offset="78.125%" stop-color="#fee7ec" stop-opacity="1"></stop>
        </linearGradient>
    </defs>
    <g transform="translate(1440, 0)">
        <path d="M0 795.1C-111.7 782.8 -223.3 770.5 -293.9 709.5C-364.5 648.6 -393.9 539.1 -470.9 470.9C-548 402.8 -672.6 375.9 -734.6 304.3C-796.6 232.7 -795.9 116.3 -795.1 0L0 0Z" fill="#fff3f5"></path>
        <path d="M0 596.4C-83.8 587.1 -167.5 577.8 -220.4 532.2C-273.3 486.5 -295.4 404.3 -353.2 353.2C-411 302.1 -504.5 281.9 -551 228.2C-597.4 174.5 -596.9 87.3 -596.4 0L0 0Z" fill="#fddbe3"></path>
        <path d="M0 397.6C-55.8 391.4 -111.7 385.2 -147 354.8C-182.2 324.3 -196.9 269.6 -235.5 235.5C-274 201.4 -336.3 187.9 -367.3 152.1C-398.3 116.3 -397.9 58.2 -397.6 0L0 0Z" fill="#fac3d0"></path>
        <path d="M0 198.8C-27.9 195.7 -55.8 192.6 -73.5 177.4C-91.1 162.2 -98.5 134.8 -117.7 117.7C-137 100.7 -168.2 94 -183.7 76.1C-199.1 58.2 -199 29.1 -198.8 0L0 0Z" fill="#f8b7c7"></path>
    </g>
    <g transform="translate(0, 1024)">
        <path d="M0 -795.1C105.8 -786.8 211.6 -778.5 304.3 -734.6C397 -690.7 476.6 -611.3 526.8 -526.8C577 -442.3 597.7 -352.7 637.5 -264.1C677.3 -175.4 736.2 -87.7 795.1 0L0 0Z" fill="#fff3f5"></path>
        <path d="M0 -596.4C79.3 -590.1 158.7 -583.9 228.2 -551C297.7 -518 357.5 -458.5 395.1 -395.1C432.7 -331.7 448.2 -264.5 478.1 -198C508 -131.6 552.2 -65.8 596.4 0L0 0Z" fill="#fddbe3"></path>
        <path d="M0 -397.6C52.9 -393.4 105.8 -389.2 152.1 -367.3C198.5 -345.4 238.3 -305.7 263.4 -263.4C288.5 -221.1 298.8 -176.3 318.7 -132C338.6 -87.7 368.1 -43.9 397.6 0L0 0Z" fill="#fac3d0"></path>
        <path d="M0 -198.8C26.4 -196.7 52.9 -194.6 76.1 -183.7C99.2 -172.7 119.2 -152.8 131.7 -131.7C144.2 -110.6 149.4 -88.2 159.4 -66C169.3 -43.9 184.1 -21.9 198.8 0L0 0Z" fill="#f8b7c7"></path>
    </g>
</svg>