<svg xmlns="http://www.w3.org/2000/svg" viewBox="0 0 1080 1080" width="1080" height="1080" preserveAspectRatio="xMidYMid meet" style="width: 100%; height: 100%; transform: translate3d(0px, 0px, 0px);">
    <defs>
        <clipPath id="__lottie_element_2">
            <rect width="1080" height="1080" x="0" y="0"></rect>
        </clipPath>
    </defs>
    <g clip-path="url(#__lottie_element_2)">
        <g transform="matrix(0.9988465905189514,0.0480150543153286,-0.0480150543153286,0.9988465905189514,621.614013671875,350.3503112792969)" opacity="1" style="display: block;">
            <g opacity="1" transform="matrix(1,0,0,1,97.27100372314453,117.3949966430664)">
                <path fill="rgb(116,210,197)" fill-opacity="1" d=" M25.541000366210938,60.667999267578125 C-2.197000026702881,99.98699951171875 -45.547000885009766,117.1449966430664 -71.28399658203125,98.98899841308594 C-97.02100372314453,80.83300018310547 -95.39900207519531,34.2400016784668 -67.66100311279297,-5.080999851226807 C-39.92300033569336,-44.4010009765625 45.547000885009766,-117.1449966430664 71.28399658203125,-98.98899841308594 C97.02100372314453,-80.83300018310547 53.27899932861328,21.347000122070312 25.541000366210938,60.667999267578125z"></path>
            </g>
            <g opacity="1" transform="matrix(1,0,0,1,78.03700256347656,142.5989990234375)">
                <path stroke-linecap="butt" stroke-linejoin="miter" fill-opacity="0" stroke-miterlimit="10" stroke="rgb(62,47,123)" stroke-opacity="1" stroke-width="4.752" d=" M52.05099868774414,-73.78500366210938 C52.05099868774414,-73.78500366210938 -52.05099868774414,73.78500366210938 -52.05099868774414,73.78500366210938"></path>
            </g>
        </g>
        <g transform="matrix(0.9991883635520935,-0.04028131440281868,0.04028131440281868,0.9991883635520935,274.7096862792969,403.0646057128906)" opacity="1" style="display: block;">
            <g opacity="1" transform="matrix(1,0,0,1,117.66500091552734,97.30899810791016)">
                <path fill="rgb(116,210,197)" fill-opacity="1" d=" M-5.314000129699707,65.60900115966797 C33.31800079345703,94.29900360107422 79.85800170898438,97.05899810791016 98.63600158691406,71.77300262451172 C117.41500091552734,46.48699951171875 101.3219985961914,2.7309999465942383 62.68899917602539,-25.958999633789062 C24.058000564575195,-54.64799880981445 -79.85700225830078,-97.05799865722656 -98.63600158691406,-71.77200317382812 C-117.41500091552734,-46.486000061035156 -43.94499969482422,36.91899871826172 -5.314000129699707,65.60900115966797z"></path>
            </g>
            <g opacity="1" transform="matrix(1,0,0,1,143.8090057373047,115.24500274658203)">
                <path stroke-linecap="butt" stroke-linejoin="miter" fill-opacity="0" stroke-miterlimit="10" stroke="rgb(62,47,123)" stroke-opacity="1" stroke-width="4.752" d=" M-72.49199676513672,-53.83599853515625 C-72.49199676513672,-53.83599853515625 72.49199676513672,53.83599853515625 72.49199676513672,53.83599853515625"></path>
            </g>
        </g>
        <g transform="matrix(0.9993531107902527,0.03596365079283714,-0.03596365079283714,0.9993531107902527,530.4674072265625,242.59750366210938)" opacity="1" style="display: block;">
            <g opacity="1" transform="matrix(1,0,0,1,99.59600067138672,169.78700256347656)">
                <path fill="rgb(19,181,157)" fill-opacity="1" d=" M67.02999877929688,67.15799713134766 C47.93899917602539,129.2949981689453 -0.5080000162124634,169.53700256347656 -41.18000030517578,157.04200744628906 C-81.85099792480469,144.54600524902344 -99.34600067138672,84.04499816894531 -80.25399780273438,21.906999588012695 C-61.16400146484375,-40.22999954223633 18.0049991607666,-169.53700256347656 58.67599868774414,-157.04200744628906 C99.34600067138672,-144.5449981689453 86.12100219726562,5.020999908447266 67.02999877929688,67.15799713134766z"></path>
            </g>
            <g opacity="1" transform="matrix(1,0,0,1,94.23999786376953,210.22900390625)">
                <path stroke-linecap="butt" stroke-linejoin="miter" fill-opacity="0" stroke-miterlimit="10" stroke="rgb(62,47,123)" stroke-opacity="1" stroke-width="6.42" d=" M35.82400131225586,-116.60099792480469 C35.82400131225586,-116.60099792480469 -35.82400131225586,116.60099792480469 -35.82400131225586,116.60099792480469"></path>
            </g>
        </g>
        <g transform="matrix(0.9999856948852539,-0.005345191340893507,0.005345191340893507,0.9999856948852539,354.75518798828125,259.7749328613281)" opacity="1" style="display: block;">
            <g opacity="1" transform="matrix(1,0,0,1,117.427001953125,166.13400268554688)">
                <path fill="rgb(19,181,157)" fill-opacity="1" d=" M86.16899871826172,5.39300012588501 C117.1780014038086,62.52399826049805 111.9990005493164,125.29100036621094 74.6050033569336,145.58700561523438 C37.21099853515625,165.88400268554688 -18.239999771118164,136.02499389648438 -49.249000549316406,78.89399719238281 C-80.25800323486328,21.763999938964844 -117.177001953125,-125.29100036621094 -79.78099822998047,-145.58700561523438 C-42.38800048828125,-165.88400268554688 55.15999984741211,-51.73699951171875 86.16899871826172,5.39300012588501z"></path>
            </g>
            <g opacity="1" transform="matrix(1,0,0,1,133.8459930419922,204.51600646972656)">
                <path stroke-linecap="butt" stroke-linejoin="miter" fill-opacity="0" stroke-miterlimit="10" stroke="rgb(62,47,123)" stroke-opacity="1" stroke-width="6.42" d=" M-58.1879997253418,-107.20600128173828 C-58.1879997253418,-107.20600128173828 58.1879997253418,107.20600128173828 58.1879997253418,107.20600128173828"></path>
            </g>
        </g>
        <g transform="matrix(1,0,0,1,474.09698486328125,243.48699951171875)" opacity="1" style="display: block;">
            <g opacity="1" transform="matrix(1,0,0,1,77.29000091552734,165.0290069580078)">
                <path fill="rgb(116,210,197)" fill-opacity="1" d=" M77.04000091552734,47.08000183105469 C77.04000091552734,112.08300018310547 42.54899978637695,164.7779998779297 0.0010000000474974513,164.7779998779297 C-42.547000885009766,164.7779998779297 -77.04000091552734,112.08300018310547 -77.04000091552734,47.08000183105469 C-77.04000091552734,-17.92300033569336 -39.3390007019043,-164.7779998779297 3.2100000381469727,-164.7779998779297 C45.757999420166016,-164.7779998779297 77.04000091552734,-17.92300033569336 77.04000091552734,47.08000183105469z"></path>
            </g>
            <g opacity="1" transform="matrix(1,0,0,1,0,0)">
                <path stroke-linecap="butt" stroke-linejoin="miter" fill-opacity="0" stroke-miterlimit="10" stroke="rgb(62,47,123)" stroke-opacity="1" stroke-width="6.42" d=" M77.29000091552734,85.8489990234375 C77.29000091552734,85.8489990234375 77.29000091552734,329.8070068359375 77.29000091552734,329.8070068359375"></path>
            </g>
        </g>
        <g transform="matrix(1,0,0,1,391.19000244140625,581.2100219726562)" opacity="1" style="display: block;">
            <g opacity="1" transform="matrix(1,0,0,1,158.2969970703125,122.40699768066406)">
                <path fill="rgb(99,84,187)" fill-opacity="1" d=" M-132.32899475097656,-122.15699768066406 C-148.5399932861328,-97.34100341796875 -158.0469970703125,-67.74299621582031 -158.0469970703125,-35.888999938964844 C-158.0469970703125,51.39799880981445 -87.28700256347656,122.15699768066406 0,122.15699768066406 C87.28700256347656,122.15699768066406 158.0469970703125,51.39799880981445 158.0469970703125,-35.888999938964844 C158.0469970703125,-67.74299621582031 148.54200744628906,-97.34100341796875 132.3300018310547,-122.15699768066406 C132.3300018310547,-122.15699768066406 -132.32899475097656,-122.15699768066406 -132.32899475097656,-122.15699768066406z"></path>
            </g>
        </g>
        <g transform="matrix(1,0,0,1,391.6290283203125,581.4600219726562)" opacity="1" style="display: block;">
            <g opacity="1" transform="matrix(1,0,0,1,157.85899353027344,40.61000061035156)">
                <path fill="rgb(63,52,124)" fill-opacity="1" d=" M157.86000061035156,40.61000061035156 C156.90699768066406,10.689000129699707 147.677001953125,-17.115999221801758 132.3300018310547,-40.61000061035156 C132.3300018310547,-40.61000061035156 -132.32899475097656,-40.61000061035156 -132.32899475097656,-40.61000061035156 C-147.677001953125,-17.115999221801758 -156.90699768066406,10.689000129699707 -157.85899353027344,40.61000061035156 C-157.85899353027344,40.61000061035156 157.86000061035156,40.61000061035156 157.86000061035156,40.61000061035156z"></path>
            </g>
        </g>
        <g transform="matrix(0.9756636023521423,0,0,1,367.543701171875,558.60205078125)" opacity="1" style="display: block;">
            <g opacity="1" transform="matrix(1,0,0,1,182.8820037841797,24.834999084472656)">
                <path fill="rgb(100,85,188)" fill-opacity="1" d=" M158.04800415039062,24.584999084472656 C158.04800415039062,24.584999084472656 -158.04600524902344,24.584999084472656 -158.04600524902344,24.584999084472656 C-171.5679931640625,24.584999084472656 -182.6320037841797,13.522000312805176 -182.6320037841797,0 C-182.6320037841797,-13.520999908447266 -171.5679931640625,-24.584999084472656 -158.04600524902344,-24.584999084472656 C-158.04600524902344,-24.584999084472656 158.04800415039062,-24.584999084472656 158.04800415039062,-24.584999084472656 C171.56900024414062,-24.584999084472656 182.6320037841797,-13.520999908447266 182.6320037841797,0 C182.6320037841797,13.522000312805176 171.56900024414062,24.584999084472656 158.04800415039062,24.584999084472656z"></path>
            </g>
        </g>
    </g>
</svg>