<svg id="Layer_1" data-name="Layer 1" xmlns="http://www.w3.org/2000/svg" viewBox="0 0 135.73 127.63">
    <defs>
        <style>.cls-1{fill:#ef496f;}.cls-2{fill:#f2718d;}.cls-3{fill:#f8b7c6;}</style>
    </defs>
    <path class="cls-1" d="M266.34,316.33l-61-37.24c-2.67-1.63-2.67-4.27,0-5.9l61-37.24a10.17,10.17,0,0,1,9.67,0l61,37.24c2.67,1.63,2.67,4.27,0,5.9l-61,37.24A10.17,10.17,0,0,1,266.34,316.33Z" transform="translate(-203.31 -189.92)" />
    <path class="cls-2" d="M266.34,295.65l-61-37.24c-2.67-1.63-2.67-4.27,0-5.9l61-37.24a10.17,10.17,0,0,1,9.67,0l61,37.24c2.67,1.63,2.67,4.27,0,5.9l-61,37.24A10.17,10.17,0,0,1,266.34,295.65Z" transform="translate(-203.31 -189.92)" />
    <path class="cls-3" d="M266.34,271.52l-61-37.24c-2.67-1.63-2.67-4.27,0-5.9l61-37.24a10.17,10.17,0,0,1,9.67,0l61,37.24c2.67,1.63,2.67,4.27,0,5.9l-61,37.24A10.17,10.17,0,0,1,266.34,271.52Z" transform="translate(-203.31 -189.92)" />
</svg>